<?xml version="1.0" encoding="UTF-8"?>
<svg version="1.1" xmlns="http://www.w3.org/2000/svg" width="483" height="80">
<path d="M0 0 C159.39 0 318.78 0 483 0 C483 26.4 483 52.8 483 80 C323.61 80 164.22 80 0 80 C0 53.6 0 27.2 0 0 Z " fill="#FDFDFD" transform="translate(0,0)"/>
<path d="M0 0 C4.764375 -0.1546875 4.764375 -0.1546875 9.625 -0.3125 C11.1092749 -0.38078003 11.1092749 -0.38078003 12.62353516 -0.45043945 C17.02797962 -0.51943975 20.08156249 -0.45735553 23.5859375 2.39453125 C26.40675655 5.43900747 26.93391197 6.14085558 27.25 10.25 C26.88589866 15.71152006 25.4132704 18.75106337 21.3125 22.375 C20.549375 22.91125 19.78625 23.4475 19 24 C22.3 24 25.6 24 29 24 C29.20496094 22.68644531 29.40992188 21.37289062 29.62109375 20.01953125 C29.89317421 18.28384555 30.16531267 16.54816894 30.4375 14.8125 C30.57220703 13.94818359 30.70691406 13.08386719 30.84570312 12.19335938 C31.48704305 8.11068325 32.13776221 4.04330923 33 0 C35.97 0 38.94 0 42 0 C41.67 3.96 41.34 7.92 41 12 C42.32 11.01 43.64 10.02 45 9 C49.0459428 8.48506183 51.29233869 8.63864103 54.9375 10.5 C57.48395357 13.58661039 57.48806235 15.21760529 57.2421875 19.09375 C56.98419536 21.12439781 56.64830714 23.05507857 56 25 C57.65 25 59.3 25 61 25 C61.13277344 23.92878906 61.26554687 22.85757813 61.40234375 21.75390625 C61.5805056 20.35674231 61.75890319 18.95960841 61.9375 17.5625 C62.02451172 16.85544922 62.11152344 16.14839844 62.20117188 15.41992188 C62.88671875 10.11328125 62.88671875 10.11328125 64 9 C66.67058851 8.85884839 69.32432238 8.95752893 72 9 C71.85764543 10.72945653 71.71095618 12.45855654 71.5625 14.1875 C71.44068359 15.63189453 71.44068359 15.63189453 71.31640625 17.10546875 C71.02333849 19.78649602 70.57296246 22.3662986 70 25 C73.96 24.505 73.96 24.505 78 24 C77.01 22.515 77.01 22.515 76 21 C76.14177743 17.10112054 76.42368163 14.75517579 78.8125 11.625 C83.20686133 8.3606173 88.70605633 8.34168576 94 9 C97.5625 10.6875 97.5625 10.6875 100 13 C100.375 15.75 100.375 15.75 100 18 C96.625 18.125 96.625 18.125 93 18 C92.01 17.01 92.01 17.01 91 16 C88.41645782 15.83312552 88.41645782 15.83312552 86 16 C86 16.99 86 17.98 86 19 C86.60328125 19.10957031 87.2065625 19.21914063 87.828125 19.33203125 C92.39321524 20.23768625 95.30897452 21.09990855 99 24 C100.65 24 102.3 24 104 24 C105.32 16.08 106.64 8.16 108 0 C110.97 0 113.94 0 117 0 C116.67 3.96 116.34 7.92 116 12 C117.32 11.01 118.64 10.02 120 9 C124.39593437 8.36059136 126.27096589 8.48812498 129.9375 11.0625 C132.49864044 14.71018487 132.47722881 16.62540261 132 21 C131.67 22.32 131.34 23.64 131 25 C136.28 25 141.56 25 147 25 C147.04125 23.370625 147.0825 21.74125 147.125 20.0625 C147.79939115 12.88439146 150.55460417 8.21219218 155.7890625 3.33203125 C160.41602314 -0.06678551 164.70087449 -0.7016068 170.375 -0.42578125 C174.43599387 0.23292163 176.72705795 1.49306566 180 4 C182.1518868 6.99392946 182 8.13907349 182 12 C180.54257537 12.08096803 179.08387193 12.13917774 177.625 12.1875 C176.81289062 12.22230469 176.00078125 12.25710937 175.1640625 12.29296875 C174.44992188 12.19628906 173.73578125 12.09960938 173 12 C172.01 10.515 172.01 10.515 171 9 C167.84181334 8.53403803 166.00903951 8.27368012 163 9 C159.90197949 11.40285494 158.23794739 14.28615784 157 18 C156.656509 23.33295432 156.656509 23.33295432 159 28 C161.09842369 28.47722472 161.09842369 28.47722472 163.4375 28.375 C164.21996094 28.38273437 165.00242188 28.39046875 165.80859375 28.3984375 C168.48129291 27.9124922 169.32807035 27.09630323 171 25 C171.33 24.34 171.66 23.68 172 23 C169.69 23 167.38 23 165 23 C165.33 21.02 165.66 19.04 166 17 C170.95 17 175.9 17 181 17 C181 23 181 23 180 25 C181.65 24.67 183.3 24.34 185 24 C185.13277344 23.08476563 185.26554688 22.16953125 185.40234375 21.2265625 C185.57894531 20.03804687 185.75554687 18.84953125 185.9375 17.625 C186.11152344 16.44164063 186.28554687 15.25828125 186.46484375 14.0390625 C187 11 187 11 188 9 C190.97 9 193.94 9 197 9 C196.855625 9.95261719 196.71125 10.90523437 196.5625 11.88671875 C196.376875 13.14097656 196.19125 14.39523438 196 15.6875 C195.814375 16.92886719 195.62875 18.17023437 195.4375 19.44921875 C195.07899589 22.35886371 194.91057744 25.07700022 195 28 C198.58327753 29.00217064 198.58327753 29.00217064 202 28 C202.54419183 26.18437345 202.54419183 26.18437345 202.81640625 24 C203.00299805 22.7934375 203.00299805 22.7934375 203.19335938 21.5625 C203.31517578 20.716875 203.43699219 19.87125 203.5625 19 C203.81029153 17.33280779 204.06141718 15.66610657 204.31640625 14 C204.42412354 13.2575 204.53184082 12.515 204.64282227 11.75 C205 10 205 10 206 9 C208.67058851 8.85884839 211.32432238 8.95752893 214 9 C213.47703913 18.52149445 211.8815863 27.67490566 210 37 C207.36 37 204.72 37 202 37 C201.67 36.01 201.34 35.02 201 34 C200.319375 34.495 199.63875 34.99 198.9375 35.5 C195.27000208 37.37276489 193.06812955 37.59172793 189 37 C186.15751732 34.449054 185.08981203 33.0103853 184.75 29.1875 C184.8325 28.465625 184.915 27.74375 185 27 C181.8547227 27.07488755 179.71194722 27.30550246 177.40625 29.5546875 C176.40676972 30.7836403 175.43367128 32.03466513 174.4921875 33.30859375 C171.93490152 36.20729749 169.79968279 36.91114636 165.9765625 37.3359375 C155.80431889 37.45449512 155.80431889 37.45449512 152.3125 35.375 C150 33 150 33 148 27 C142.06 27 136.12 27 130 27 C129.67 30.3 129.34 33.6 129 37 C126.03 37 123.06 37 120 37 C120.144375 36.13117187 120.28875 35.26234375 120.4375 34.3671875 C120.623125 33.21476562 120.80875 32.06234375 121 30.875 C121.185625 29.73804687 121.37125 28.60109375 121.5625 27.4296875 C121.96956049 24.23862398 122.07809902 21.21182209 122 18 C119.65466049 17.23043864 119.65466049 17.23043864 117 17 C115.22875689 17.92992116 115.22875689 17.92992116 114 20 C113.49077273 22.75211593 113.12363259 25.35104031 112.875 28.125 C112.10472973 35.89527027 112.10472973 35.89527027 111 37 C107.99668982 37.14193337 105.00782866 37.04236378 102 37 C102.33 33.7 102.66 30.4 103 27 C101.68 27 100.36 27 99 27 C98.979375 27.9075 98.95875 28.815 98.9375 29.75 C98 33 98 33 95.1875 35.375 C90.08593757 37.87825113 84.52589462 37.91576441 79 37 C75.75 34.75 75.75 34.75 74 32 C74 30.68 74 29.36 74 28 C76.64 28 79.28 28 82 28 C82.495 28.99 82.495 28.99 83 30 C84.98 30 86.96 30 89 30 C89.495 28.515 89.495 28.515 90 27 C83.07 27 76.14 27 69 27 C68.67 30.3 68.34 33.6 68 37 C65.03 37 62.06 37 59 37 C59.495 32.05 59.495 32.05 60 27 C58.35 27 56.7 27 55 27 C55.020625 28.093125 55.04125 29.18625 55.0625 30.3125 C55 34 55 34 54 37 C51.03 37 48.06 37 45 37 C45.144375 35.906875 45.28875 34.81375 45.4375 33.6875 C46.09310693 28.470742 46.54748223 23.23765253 47 18 C43.71303767 17.20046862 42.28976808 16.90341064 39 18 C38.01 24.27 37.02 30.54 36 37 C33.03 37 30.06 37 27 37 C27.495 32.05 27.495 32.05 28 27 C20.41 27 12.82 27 5 27 C4.34 30.3 3.68 33.6 3 37 C0.36 37 -2.28 37 -5 37 C-5 34.03 -5 31.06 -5 28 C-17.87 27.505 -17.87 27.505 -31 27 C-31 26.34 -31 25.68 -31 25 C-22.09 24.67 -13.18 24.34 -4 24 C-2.68 16.08 -1.36 8.16 0 0 Z " fill="#0C24FE" transform="translate(36,21)"/>
<path d="M0 0 C2.97 0 5.94 0 9 0 C8.34938113 8.38955907 7.25101251 16.68015955 6 25 C7.65 25 9.3 25 11 25 C11.06058594 24.18015625 11.12117188 23.3603125 11.18359375 22.515625 C11.30927734 20.89914063 11.30927734 20.89914063 11.4375 19.25 C11.55931641 17.64898437 11.55931641 17.64898437 11.68359375 16.015625 C12 13 12 13 13 9 C15.97 9 18.94 9 22 9 C21.34 14.28 20.68 19.56 20 25 C23.39905235 23.86698255 26.5954667 22.7816864 29.875 21.4375 C33.91200656 19.89439711 37.70429522 19.38354507 42 19 C42 18.01 42 17.02 42 16 C39.08347826 15.83318891 39.08347826 15.83318891 36 16 C35.34 16.66 34.68 17.32 34 18 C31.31160615 18.26991906 28.70858064 18.08737357 26 18 C27.44463953 14.62917442 29.24663125 12.41962708 32 10 C37.4277155 8.1907615 42.22829941 8.31618574 47.5625 10.375 C50.23575843 13.25389369 50.3980995 13.77164042 50.5 17.5 C49.63135593 31.73728814 49.63135593 31.73728814 47 37 C44.36 37 41.72 37 39 37 C38.67 36.34 38.34 35.68 38 35 C37.01 35.66 36.02 36.32 35 37 C31.95362951 37.47461569 29.04917656 37.45425349 26 37 C23.9375 35.375 23.9375 35.375 23 33 C22.8125 29.75 22.8125 29.75 23 27 C21.68 27 20.36 27 19 27 C18.67 30.3 18.34 33.6 18 37 C15.03 37 12.06 37 9 37 C9.495 32.05 9.495 32.05 10 27 C8.35 27 6.7 27 5 27 C4.34 30.3 3.68 33.6 3 37 C0.36 37 -2.28 37 -5 37 C-5.33 36.01 -5.66 35.02 -6 34 C-6.515625 34.495 -7.03125 34.99 -7.5625 35.5 C-10.96381375 37.59311615 -13.07072743 37.55147685 -17 37 C-20.16384761 34.59272465 -21.70458888 33.02257696 -22.8125 29.1875 C-22.874375 28.465625 -22.93625 27.74375 -23 27 C-26.3 27 -29.6 27 -33 27 C-33.33 30.3 -33.66 33.6 -34 37 C-36.97 37 -39.94 37 -43 37 C-42.67 33.7 -42.34 30.4 -42 27 C-43.65 27 -45.3 27 -47 27 C-47.33 30.3 -47.66 33.6 -48 37 C-50.97 37 -53.94 37 -57 37 C-57 36.34 -57 35.68 -57 35 C-57.7425 35.495 -57.7425 35.495 -58.5 36 C-62.0441367 37.41765468 -65.23418854 37.60838263 -69 37 C-71.5625 35.4375 -71.5625 35.4375 -73 33 C-73.16250167 28.53120398 -72.51633199 26.61144577 -69.625 23.1875 C-65.36401133 20.01264569 -60.14635333 19.61353323 -55 19 C-55 18.01 -55 17.02 -55 16 C-58.29075996 16.37904208 -58.29075996 16.37904208 -61 18 C-62.51928038 18.07179964 -64.04167482 18.08392007 -65.5625 18.0625 C-66.38878906 18.05347656 -67.21507812 18.04445313 -68.06640625 18.03515625 C-69.02353516 18.01775391 -69.02353516 18.01775391 -70 18 C-67.77075233 13.54150467 -65.4725679 11.23628395 -61 9 C-56.58709409 8.29953874 -53.12460146 8.47359081 -49.0625 10.375 C-47 12 -47 12 -45 14 C-45.0234375 16.6015625 -45.0234375 16.6015625 -45.375 19.625 C-45.54128906 21.12933594 -45.54128906 21.12933594 -45.7109375 22.6640625 C-45.85402344 23.82035156 -45.85402344 23.82035156 -46 25 C-44.35 25 -42.7 25 -41 25 C-40.95101562 24.34773438 -40.90203125 23.69546875 -40.8515625 23.0234375 C-40.42757771 18.06720147 -39.84334427 13.66980549 -38 9 C-35.36 9 -32.72 9 -30 9 C-29.505 9.99 -29.505 9.99 -29 11 C-28.01 10.34 -27.02 9.68 -26 9 C-23.3125 8.875 -23.3125 8.875 -21 9 C-21.33 11.64 -21.66 14.28 -22 17 C-23.093125 17.020625 -24.18625 17.04125 -25.3125 17.0625 C-28.95732337 17.56114043 -28.95732337 17.56114043 -30.1328125 19.625 C-31.06424734 21.78223035 -31.06424734 21.78223035 -32 25 C-28.7 25 -25.4 25 -22 25 C-21.9175 23.96875 -21.835 22.9375 -21.75 21.875 C-20.73440887 16.62777919 -18.82389407 13.43991637 -14.625 10.125 C-11.43547403 8.7580603 -9.43614902 8.48823312 -6 9 C-4.68 10.32 -3.36 11.64 -2 13 C-1.34 8.71 -0.68 4.42 0 0 Z " fill="#121212" transform="translate(324,21)"/>
<path d="M0 0 C2.61397316 1.36689013 4.52577578 2.8315481 6.25 5.23046875 C6.8125 7.23046875 6.8125 7.23046875 6.8125 11.23046875 C5.35507537 11.31143678 3.89637193 11.36964649 2.4375 11.41796875 C1.62539062 11.45277344 0.81328125 11.48757812 -0.0234375 11.5234375 C-0.73757812 11.42675781 -1.45171875 11.33007812 -2.1875 11.23046875 C-2.8475 10.24046875 -3.5075 9.25046875 -4.1875 8.23046875 C-7.34568666 7.76450678 -9.17846049 7.50414887 -12.1875 8.23046875 C-15.28552051 10.63332369 -16.94955261 13.51662659 -18.1875 17.23046875 C-18.530991 22.56342307 -18.530991 22.56342307 -16.1875 27.23046875 C-14.08907631 27.70769347 -14.08907631 27.70769347 -11.75 27.60546875 C-10.96753906 27.61320312 -10.18507812 27.6209375 -9.37890625 27.62890625 C-6.70620709 27.14296095 -5.85942965 26.32677198 -4.1875 24.23046875 C-3.8575 23.57046875 -3.5275 22.91046875 -3.1875 22.23046875 C-5.4975 22.23046875 -7.8075 22.23046875 -10.1875 22.23046875 C-9.8575 20.25046875 -9.5275 18.27046875 -9.1875 16.23046875 C-4.2375 16.23046875 0.7125 16.23046875 5.8125 16.23046875 C5.8125 22.23046875 5.8125 22.23046875 4.8125 24.23046875 C6.4625 23.90046875 8.1125 23.57046875 9.8125 23.23046875 C9.94527344 22.31523438 10.07804687 21.4 10.21484375 20.45703125 C10.39144531 19.26851562 10.56804687 18.08 10.75 16.85546875 C10.92402344 15.67210938 11.09804687 14.48875 11.27734375 13.26953125 C11.8125 10.23046875 11.8125 10.23046875 12.8125 8.23046875 C15.7825 8.23046875 18.7525 8.23046875 21.8125 8.23046875 C21.668125 9.18308594 21.52375 10.13570312 21.375 11.1171875 C21.0965625 12.99857422 21.0965625 12.99857422 20.8125 14.91796875 C20.5340625 16.78001953 20.5340625 16.78001953 20.25 18.6796875 C19.89149589 21.58933246 19.72307744 24.30746897 19.8125 27.23046875 C23.39577753 28.23263939 23.39577753 28.23263939 26.8125 27.23046875 C27.35669183 25.4148422 27.35669183 25.4148422 27.62890625 23.23046875 C27.75330078 22.42609375 27.87769531 21.62171875 28.00585938 20.79296875 C28.12767578 19.94734375 28.24949219 19.10171875 28.375 18.23046875 C28.62279153 16.56327654 28.87391718 14.89657532 29.12890625 13.23046875 C29.23662354 12.48796875 29.34434082 11.74546875 29.45532227 10.98046875 C29.8125 9.23046875 29.8125 9.23046875 30.8125 8.23046875 C33.48308851 8.08931714 36.13682238 8.18799768 38.8125 8.23046875 C38.28953913 17.7519632 36.6940863 26.90537441 34.8125 36.23046875 C32.1725 36.23046875 29.5325 36.23046875 26.8125 36.23046875 C26.4825 35.24046875 26.1525 34.25046875 25.8125 33.23046875 C25.131875 33.72546875 24.45125 34.22046875 23.75 34.73046875 C20.08250208 36.60323364 17.88062955 36.82219668 13.8125 36.23046875 C10.97001732 33.67952275 9.90231203 32.24085405 9.5625 28.41796875 C9.645 27.69609375 9.7275 26.97421875 9.8125 26.23046875 C6.6672227 26.3053563 4.52444722 26.53597121 2.21875 28.78515625 C1.21926972 30.01410905 0.24617128 31.26513388 -0.6953125 32.5390625 C-3.25259848 35.43776624 -5.38781721 36.14161511 -9.2109375 36.56640625 C-20.59475574 36.69908478 -20.59475574 36.69908478 -25.1875 32.23046875 C-28.79206648 26.75405722 -27.91065296 19.47411972 -27.1875 13.23046875 C-24.99067984 7.4234331 -20.88500734 3.03555901 -15.4609375 0.04296875 C-10.39596707 -1.7671925 -5.07590737 -1.7856317 0 0 Z " fill="#070707" transform="translate(211.1875,21.76953125)"/>
<path d="M0 0 C2.97 0 5.94 0 9 0 C8.67 3.96 8.34 7.92 8 12 C9.32 11.01 10.64 10.02 12 9 C16.39593437 8.36059136 18.27096589 8.48812498 21.9375 11.0625 C24.49864044 14.71018487 24.47722881 16.62540261 24 21 C23.67 22.32 23.34 23.64 23 25 C28.28 25 33.56 25 39 25 C39 23.02 39 21.04 39 19 C39.33 19 39.66 19 40 19 C40 21.64 40 24.28 40 27 C34.06 27 28.12 27 22 27 C21.67 30.3 21.34 33.6 21 37 C18.03 37 15.06 37 12 37 C12.144375 36.13117187 12.28875 35.26234375 12.4375 34.3671875 C12.7159375 32.63855469 12.7159375 32.63855469 13 30.875 C13.2784375 29.16957031 13.2784375 29.16957031 13.5625 27.4296875 C13.96956049 24.23862398 14.07809902 21.21182209 14 18 C11.65466049 17.23043864 11.65466049 17.23043864 9 17 C7.22875689 17.92992116 7.22875689 17.92992116 6 20 C5.49077273 22.75211593 5.12363259 25.35104031 4.875 28.125 C4.10472973 35.89527027 4.10472973 35.89527027 3 37 C-0.00331018 37.14193337 -2.99217134 37.04236378 -6 37 C-5.67 33.7 -5.34 30.4 -5 27 C-6.32 27 -7.64 27 -9 27 C-9.020625 27.9075 -9.04125 28.815 -9.0625 29.75 C-10 33 -10 33 -12.8125 35.375 C-17.91406243 37.87825113 -23.47410538 37.91576441 -29 37 C-32.25 34.75 -32.25 34.75 -34 32 C-34 30.68 -34 29.36 -34 28 C-31.36 28 -28.72 28 -26 28 C-25.67 28.66 -25.34 29.32 -25 30 C-23.02 30 -21.04 30 -19 30 C-18.67 29.01 -18.34 28.02 -18 27 C-18.67546875 26.90203125 -19.3509375 26.8040625 -20.046875 26.703125 C-24.02401084 26.03643749 -27.24521027 25.47393774 -30.6875 23.3125 C-32 21 -32 21 -32 17.5 C-30.92566727 13.73983546 -30.10608389 12.3073766 -27 10 C-21.26816078 8.20955127 -15.87420197 8.11222012 -10.4375 10.6875 C-8 13 -8 13 -7.625 15.75 C-7.74875 16.4925 -7.8725 17.235 -8 18 C-11.375 18.125 -11.375 18.125 -15 18 C-15.66 17.34 -16.32 16.68 -17 16 C-19.58354218 15.83312552 -19.58354218 15.83312552 -22 16 C-22 16.99 -22 17.98 -22 19 C-21.09507813 19.16435547 -21.09507813 19.16435547 -20.171875 19.33203125 C-15.60678476 20.23768625 -12.69102548 21.09990855 -9 24 C-7.35 24 -5.7 24 -4 24 C-2.68 16.08 -1.36 8.16 0 0 Z " fill="#1329F4" transform="translate(144,21)"/>
<path d="M0 0 C2.97 0 5.94 0 9 0 C8.34 5.28 7.68 10.56 7 16 C10.39905235 14.86698255 13.5954667 13.7816864 16.875 12.4375 C20.91200656 10.89439711 24.70429522 10.38354507 29 10 C29 9.01 29 8.02 29 7 C26.08347826 6.83318891 26.08347826 6.83318891 23 7 C22.34 7.66 21.68 8.32 21 9 C18.31160615 9.26991906 15.70858064 9.08737357 13 9 C14.44463953 5.62917442 16.24663125 3.41962708 19 1 C24.4277155 -0.8092385 29.22829941 -0.68381426 34.5625 1.375 C37.23575843 4.25389369 37.3980995 4.77164042 37.5 8.5 C36.63135593 22.73728814 36.63135593 22.73728814 34 28 C31.36 28 28.72 28 26 28 C25.505 27.01 25.505 27.01 25 26 C24.01 26.66 23.02 27.32 22 28 C18.95362951 28.47461569 16.04917656 28.45425349 13 28 C10.9375 26.375 10.9375 26.375 10 24 C9.8125 20.75 9.8125 20.75 10 18 C8.68 18 7.36 18 6 18 C5.67 21.3 5.34 24.6 5 28 C2.03 28 -0.94 28 -4 28 C-3.67 24.7 -3.34 21.4 -3 18 C-4.65 18 -6.3 18 -8 18 C-7.67 16.68 -7.34 15.36 -7 14 C-7 14.66 -7 15.32 -7 16 C-5.35 16 -3.7 16 -2 16 C-1.93941406 15.18015625 -1.87882812 14.3603125 -1.81640625 13.515625 C-1.73261719 12.43796875 -1.64882813 11.3603125 -1.5625 10.25 C-1.48128906 9.18265625 -1.40007812 8.1153125 -1.31640625 7.015625 C-1 4 -1 4 0 0 Z " fill="#0F0F0F" transform="translate(337,30)"/>
<path d="M0 0 C4.764375 -0.1546875 4.764375 -0.1546875 9.625 -0.3125 C11.1092749 -0.38078003 11.1092749 -0.38078003 12.62353516 -0.45043945 C17.02797962 -0.51943975 20.08156249 -0.45735553 23.5859375 2.39453125 C26.40675655 5.43900747 26.93391197 6.14085558 27.25 10.25 C26.89101373 15.63479407 25.44494278 18.69602725 21.4375 22.3125 C17.59773729 24.97079726 15.53901437 25.11211717 10.875 25.0625 C9.77929688 25.05347656 8.68359375 25.04445313 7.5546875 25.03515625 C6.71164063 25.02355469 5.86859375 25.01195313 5 25 C4.93941406 25.69867188 4.87882812 26.39734375 4.81640625 27.1171875 C4.73261719 28.02726562 4.64882813 28.93734375 4.5625 29.875 C4.48128906 30.77992187 4.40007813 31.68484375 4.31640625 32.6171875 C4 35 4 35 3 37 C0.36 37 -2.28 37 -5 37 C-5 34.03 -5 31.06 -5 28 C-17.87 27.505 -17.87 27.505 -31 27 C-31 26.34 -31 25.68 -31 25 C-22.09 24.67 -13.18 24.34 -4 24 C-2.68 16.08 -1.36 8.16 0 0 Z " fill="#1329F5" transform="translate(36,21)"/>
<path d="M0 0 C2.97 0 5.94 0 9 0 C8.40048375 7.93471591 7.33687636 15.72046077 6 23.5625 C5.82210938 24.64080078 5.64421875 25.71910156 5.4609375 26.83007812 C4.13030688 34.73938623 4.13030688 34.73938623 3 37 C0.36 37 -2.28 37 -5 37 C-5.33 36.01 -5.66 35.02 -6 34 C-6.515625 34.495 -7.03125 34.99 -7.5625 35.5 C-10.96381375 37.59311615 -13.07072743 37.55147685 -17 37 C-19.9375 35.25 -19.9375 35.25 -22 32 C-23.04210218 26.09475433 -22.87576319 20.68880832 -19.8125 15.4375 C-17.58672721 12.43020586 -15.54799898 10.38458497 -12 9 C-8.9375 8.5625 -8.9375 8.5625 -6 9 C-4.68 10.32 -3.36 11.64 -2 13 C-1.34 8.71 -0.68 4.42 0 0 Z " fill="#080808" transform="translate(324,21)"/>
<path d="M0 0 C2.64 0 5.28 0 8 0 C8.33 0.99 8.66 1.98 9 3 C9.70125 2.505 10.4025 2.01 11.125 1.5 C14.49395521 -0.25771576 16.25082097 -0.54675527 20 0 C22.875 1.4375 22.875 1.4375 25 4 C26.06031149 12.0848751 23.74400358 20.12084097 22 28 C19.36 28 16.72 28 14 28 C14 25.03 14 22.06 14 19 C11.36 18.67 8.72 18.34 6 18 C5.93941406 18.63808594 5.87882812 19.27617188 5.81640625 19.93359375 C5.73261719 20.75988281 5.64882813 21.58617188 5.5625 22.4375 C5.48128906 23.26121094 5.40007812 24.08492187 5.31640625 24.93359375 C5 27 5 27 4 28 C1.32941149 28.14115161 -1.32432238 28.04247107 -4 28 C-3.47703913 18.47850555 -1.8815863 9.32509434 0 0 Z " fill="#0E0E0E" transform="translate(381,30)"/>
<path d="M0 0 C2.97 0 5.94 0 9 0 C8.855625 0.95261719 8.71125 1.90523437 8.5625 2.88671875 C8.376875 4.14097656 8.19125 5.39523438 8 6.6875 C7.814375 7.92886719 7.62875 9.17023437 7.4375 10.44921875 C7.07899589 13.35886371 6.91057744 16.07700022 7 19 C10.58327753 20.00217064 10.58327753 20.00217064 14 19 C14.54419183 17.18437345 14.54419183 17.18437345 14.81640625 15 C14.94080078 14.195625 15.06519531 13.39125 15.19335938 12.5625 C15.31517578 11.716875 15.43699219 10.87125 15.5625 10 C15.81029153 8.33280779 16.06141718 6.66610657 16.31640625 5 C16.42412354 4.2575 16.53184082 3.515 16.64282227 2.75 C17 1 17 1 18 0 C20.67058851 -0.14115161 23.32432238 -0.04247107 26 0 C25.47703913 9.52149445 23.8815863 18.67490566 22 28 C19.36 28 16.72 28 14 28 C13.67 27.01 13.34 26.02 13 25 C12.319375 25.495 11.63875 25.99 10.9375 26.5 C7.27000208 28.37276489 5.06812955 28.59172793 1 28 C-1.84248268 25.449054 -2.91018797 24.0103853 -3.25 20.1875 C-3.1675 19.465625 -3.085 18.74375 -3 18 C-4.98 18 -6.96 18 -9 18 C-8.67 17.34 -8.34 16.68 -8 16 C-5.4375 15.375 -5.4375 15.375 -3 15 C-2.86722656 14.08476563 -2.73445312 13.16953125 -2.59765625 12.2265625 C-2.42105469 11.03804687 -2.24445313 9.84953125 -2.0625 8.625 C-1.88847656 7.44164062 -1.71445313 6.25828125 -1.53515625 5.0390625 C-1 2 -1 2 0 0 Z " fill="#0D0D0D" transform="translate(224,30)"/>
<path d="M0 0 C2.4375 2.3125 2.4375 2.3125 2.8125 5.0625 C2.68875 5.805 2.565 6.5475 2.4375 7.3125 C-0.9375 7.4375 -0.9375 7.4375 -4.5625 7.3125 C-5.2225 6.6525 -5.8825 5.9925 -6.5625 5.3125 C-9.14604218 5.14562552 -9.14604218 5.14562552 -11.5625 5.3125 C-11.5625 6.3025 -11.5625 7.2925 -11.5625 8.3125 C-10.95921875 8.42207031 -10.3559375 8.53164063 -9.734375 8.64453125 C-0.86993845 10.40312108 -0.86993845 10.40312108 1.4375 13.3125 C2 16.6875 2 16.6875 1.4375 20.3125 C-1.10387159 23.47204305 -2.70872659 25.02790886 -6.5625 26.3125 C-17.05170863 27.35843248 -17.05170863 27.35843248 -21.8125 24.0625 C-23.5625 21.3125 -23.5625 21.3125 -23.5625 17.3125 C-20.9225 17.3125 -18.2825 17.3125 -15.5625 17.3125 C-15.2325 17.9725 -14.9025 18.6325 -14.5625 19.3125 C-12.5825 19.3125 -10.6025 19.3125 -8.5625 19.3125 C-8.2325 18.3225 -7.9025 17.3325 -7.5625 16.3125 C-8.23796875 16.21453125 -8.9134375 16.1165625 -9.609375 16.015625 C-13.58651084 15.34893749 -16.80771027 14.78643774 -20.25 12.625 C-21.5625 10.3125 -21.5625 10.3125 -21.5625 6.8125 C-20.48816727 3.05233546 -19.66858389 1.6198766 -16.5625 -0.6875 C-10.83066078 -2.47794873 -5.43670197 -2.57527988 0 0 Z " fill="#0820FE" transform="translate(133.5625,31.6875)"/>
<path d="M0 0 C2.05078125 0.03255208 4.1015625 0.06510417 6.15234375 0.09765625 C6.00998918 1.82711278 5.86329993 3.55621279 5.71484375 5.28515625 C5.63363281 6.24808594 5.55242187 7.21101563 5.46875 8.203125 C5.17568224 10.88415227 4.72530621 13.46395485 4.15234375 16.09765625 C5.11333984 15.95457031 5.11333984 15.95457031 6.09375 15.80859375 C11.7509341 15.08352992 15.79331966 15.11714735 21.15234375 17.09765625 C21.15234375 17.42765625 21.15234375 17.75765625 21.15234375 18.09765625 C15.21234375 18.09765625 9.27234375 18.09765625 3.15234375 18.09765625 C2.82234375 21.39765625 2.49234375 24.69765625 2.15234375 28.09765625 C-0.81765625 28.09765625 -3.78765625 28.09765625 -6.84765625 28.09765625 C-6.51765625 24.79765625 -6.18765625 21.49765625 -5.84765625 18.09765625 C-7.16765625 18.09765625 -8.48765625 18.09765625 -9.84765625 18.09765625 C-9.84765625 17.43765625 -9.84765625 16.77765625 -9.84765625 16.09765625 C-8.19765625 16.09765625 -6.54765625 16.09765625 -4.84765625 16.09765625 C-4.64849609 14.49083984 -4.64849609 14.49083984 -4.4453125 12.8515625 C-4.26715065 11.45439856 -4.08875306 10.05726466 -3.91015625 8.66015625 C-3.77963867 7.59958008 -3.77963867 7.59958008 -3.64648438 6.51757812 C-2.8237815 0.14924849 -2.8237815 0.14924849 0 0 Z " fill="#1128F9" transform="translate(101.84765625,29.90234375)"/>
<path d="M0 0 C2.56428515 -0.13559675 5.12135216 -0.23433188 7.6875 -0.3125 C8.40873047 -0.35439453 9.12996094 -0.39628906 9.87304688 -0.43945312 C14.06568031 -0.53517535 15.56592673 -0.33411849 19.01953125 2.32421875 C21 5 21 5 21 8.125 C20.00543826 10.98436501 19.41138526 12.23783385 17 14 C13.60365818 15.13211394 10.86509468 15.19204218 7.28515625 15.28125 C6.30693153 15.30886414 6.30693153 15.30886414 5.3089447 15.33703613 C3.22688646 15.39567733 1.14474704 15.4485271 -0.9375 15.5 C-3.67594628 15.56786653 -6.41414602 15.64156712 -9.15234375 15.71875 C-10.36913818 15.74904297 -11.58593262 15.77933594 -12.83959961 15.81054688 C-15.41610528 15.96499789 -17.52686112 16.36463049 -20 17 C-20.33 16.67 -20.66 16.34 -21 16 C-23.0708472 15.8415735 -25.14678029 15.74875578 -27.22265625 15.68359375 C-29.11274414 15.62075195 -29.11274414 15.62075195 -31.04101562 15.55664062 C-32.38150736 15.51682404 -33.7220022 15.47711186 -35.0625 15.4375 C-36.40691523 15.39431958 -37.7513166 15.35070544 -39.09570312 15.30664062 C-42.3970234 15.20014642 -45.69842236 15.0981354 -49 15 C-49 13.35 -49 11.7 -49 10 C-48.67 10.66 -48.34 11.32 -48 12 C-43.79142976 11.86055132 -39.583213 11.71231417 -35.375 11.5625 C-33.59029297 11.50352539 -33.59029297 11.50352539 -31.76953125 11.44335938 C-30.61582031 11.40146484 -29.46210938 11.35957031 -28.2734375 11.31640625 C-27.21560059 11.27974854 -26.15776367 11.24309082 -25.06787109 11.20532227 C-21.99072727 10.99937941 -19.0313191 10.55819179 -16 10 C-15.505 10.99 -15.505 10.99 -15 12 C-10.78248718 12.04946113 -6.56512832 12.08574827 -2.34741211 12.10986328 C-0.91281188 12.119917 0.52176789 12.13356194 1.95629883 12.15087891 C4.01909438 12.17515549 6.08161885 12.18648919 8.14453125 12.1953125 C10.00621948 12.21102295 10.00621948 12.21102295 11.90551758 12.22705078 C15.16903309 12.2428807 15.16903309 12.2428807 18 10 C18.41666667 7.5 18.41666667 7.5 18 5 C15.06552643 2.06552643 11.81740544 2.53841577 7.875 2.375 C7.12089844 2.33632813 6.36679687 2.29765625 5.58984375 2.2578125 C3.72696816 2.16348969 1.86351745 2.08065338 0 2 C0 1.34 0 0.68 0 0 Z " fill="#8E8E8E" transform="translate(454,33)"/>
<path d="M0 0 C2.3125 0.8125 2.3125 0.8125 3.3125 1.8125 C3.59898188 5.53676441 3.52985129 8.24497163 2.1875 11.75 C0.3125 13.8125 0.3125 13.8125 -2.875 14.125 C-3.803125 14.021875 -4.73125 13.91875 -5.6875 13.8125 C-7.2880579 10.6113842 -7.18079969 7.28615202 -6.6875 3.8125 C-4.61367081 0.66335197 -3.81455693 -0.26613188 0 0 Z " fill="#DBDBDB" transform="translate(317.6875,37.1875)"/>
<path d="M0 0 C6.36 -0.36 6.36 -0.36 9 1.125 C10.52732345 3.98873147 9.84278671 5.95300191 9 9 C7 11 7 11 5.0546875 11.1953125 C3.03645833 11.13020833 1.01822917 11.06510417 -1 11 C-1.14285714 3.57142857 -1.14285714 3.57142857 0 0 Z " fill="#EFF0FF" transform="translate(44,28)"/>
<path d="M0 0 C2.3125 0.8125 2.3125 0.8125 3.3125 1.8125 C3.22265699 3.67022162 3.06638139 5.52497985 2.875 7.375 C2.77316406 8.38691406 2.67132813 9.39882813 2.56640625 10.44140625 C2.48261719 11.22386719 2.39882812 12.00632812 2.3125 12.8125 C1.9825 12.1525 1.6525 11.4925 1.3125 10.8125 C-1.3275 10.8125 -3.9675 10.8125 -6.6875 10.8125 C-7.17087596 4.52861253 -7.17087596 4.52861253 -5 1.3125 C-2.6875 -0.1875 -2.6875 -0.1875 0 0 Z " fill="#EFF1FF" transform="translate(155.6875,37.1875)"/>
<path d="M0 0 C0.7425 0.2475 1.485 0.495 2.25 0.75 C3.41063604 5.00566547 3.01173392 8.4335078 2.25 12.75 C1.92 12.09 1.59 11.43 1.25 10.75 C-1.39 10.75 -4.03 10.75 -6.75 10.75 C-7.23337596 4.46611253 -7.23337596 4.46611253 -5.0625 1.25 C-2.75 -0.25 -2.75 -0.25 0 0 Z " fill="#D0D1E2" transform="translate(80.75,37.25)"/>
<path d="M0 0 C0.66 0.33 1.32 0.66 2 1 C1.34 4.3 0.68 7.6 0 11 C-3.3 11 -6.6 11 -10 11 C-9.25 5.25 -9.25 5.25 -7 3 C-3.375 2.875 -3.375 2.875 0 3 C0 2.01 0 1.02 0 0 Z " fill="#F2F2F2" transform="translate(302,35)"/>
<path d="M0 0 C0.33 0 0.66 0 1 0 C1 1.98 1 3.96 1 6 C5.95 5.67 10.9 5.34 16 5 C14 10 14 10 12 11 C4.19284962 11.90367395 4.19284962 11.90367395 0.9375 9.4375 C-0.30611966 6.20408888 -0.19795384 3.43119989 0 0 Z " fill="#AFAFAF" transform="translate(192,39)"/>
<path d="M0 0 C1.36623674 2.73247348 1.128426 4.98198902 1 8 C0 9 0 9 -1.84765625 9.09765625 C-3.8984375 9.06510417 -5.94921875 9.03255208 -8 9 C-8.36190476 3.57142857 -8.36190476 3.57142857 -6.8125 1.125 C-4.43963721 -0.34781139 -2.74086056 -0.22223194 0 0 Z " fill="#ECECEC" transform="translate(396,37)"/>
<path d="M0 0 C2.5 0.25 2.5 0.25 4.5 2.25 C4.125 4.875 4.125 4.875 3.5 7.25 C1.1739143 7.63063221 -1.16055264 7.96269945 -3.5 8.25 C-4.5 7.25 -4.5 7.25 -4.6875 4.8125 C-4.42807033 1.26696114 -3.53871738 0.35387174 0 0 Z " fill="#0E26FF" transform="translate(105.5,18.75)"/>
<path d="M0 0 C2.4375 0.1875 2.4375 0.1875 3.4375 1.1875 C3.625 3.625 3.625 3.625 3.4375 6.1875 C1.4375 8.1875 1.4375 8.1875 -1.125 8.375 C-3.5625 8.1875 -3.5625 8.1875 -4.5625 7.1875 C-4.75 4.75 -4.75 4.75 -4.5625 2.1875 C-2.5625 0.1875 -2.5625 0.1875 0 0 Z " fill="#070707" transform="translate(343.5625,18.8125)"/>
<path d="M0 0 C-0.33 1.32 -0.66 2.64 -1 4 C-1 3.34 -1 2.68 -1 2 C-8.59 2 -16.18 2 -24 2 C-24 1.34 -24 0.68 -24 0 C-15.83325905 -0.94120241 -8.16674095 -0.94120241 0 0 Z " fill="#7A7D97" transform="translate(65,46)"/>
<path d="M0 0 C0.33 0.66 0.66 1.32 1 2 C5.20857024 1.86055132 9.416787 1.71231417 13.625 1.5625 C15.40970703 1.50352539 15.40970703 1.50352539 17.23046875 1.44335938 C18.38417969 1.40146484 19.53789062 1.35957031 20.7265625 1.31640625 C21.78439941 1.27974854 22.84223633 1.24309082 23.93212891 1.20532227 C27.00927273 0.99937941 29.9686809 0.55819179 33 0 C32.67 1.65 32.34 3.3 32 5 C30.35 5 28.7 5 27 5 C27 4.34 27 3.68 27 3 C18.09 3 9.18 3 0 3 C0 2.01 0 1.02 0 0 Z " fill="#C2C2C2" transform="translate(405,43)"/>
<path d="M0 0 C0.33 0.66 0.66 1.32 1 2 C3.64 2 6.28 2 9 2 C8.67 3.32 8.34 4.64 8 6 C5.125 6.625 5.125 6.625 2 7 C0 5 0 5 -0.125 2.375 C-0.08375 1.59125 -0.0425 0.8075 0 0 Z " fill="#7E7E7E" transform="translate(230,44)"/>
<path d="M0 0 C1.134375 0.020625 2.26875 0.04125 3.4375 0.0625 C2.5625 3.9375 2.5625 3.9375 1.4375 5.0625 C-0.56208364 5.10330783 -2.56295254 5.10504356 -4.5625 5.0625 C-4.5625 0.08004386 -4.5625 0.08004386 0 0 Z " fill="#E1E1E1" transform="translate(360.5625,46.9375)"/>
<path d="M0 0 C0.33 1.32 0.66 2.64 1 4 C3.64 4 6.28 4 9 4 C9 5.65 9 7.3 9 9 C8.67 8.34 8.34 7.68 8 7 C5.36 7 2.72 7 0 7 C0 4.69 0 2.38 0 0 Z " fill="#9497AC" transform="translate(149,41)"/>
<path d="M0 0 C0 0.33 0 0.66 0 1 C-5.61 1 -11.22 1 -17 1 C-17 0.34 -17 -0.32 -17 -1 C-10.72532201 -2.0748291 -6.09339169 -1.88341198 0 0 Z " fill="#83848E" transform="translate(123,47)"/>
<path d="M0 0 C2.64 0 5.28 0 8 0 C7.34 1.32 6.68 2.64 6 4 C4.02 4 2.04 4 0 4 C0 2.68 0 1.36 0 0 Z " fill="#FAFAFA" transform="translate(260,48)"/>
<path d="M0 0 C2.31 0 4.62 0 7 0 C6.67 1.32 6.34 2.64 6 4 C4.02 4 2.04 4 0 4 C0 2.68 0 1.36 0 0 Z " fill="#F3F4FF" transform="translate(119,48)"/>
<path d="M0 0 C-0.33 1.32 -0.66 2.64 -1 4 C-2.65 4 -4.3 4 -6 4 C-6 2.68 -6 1.36 -6 0 C-3.50907189 -1.24546405 -2.58919267 -0.7767578 0 0 Z " fill="#B3B3B3" transform="translate(438,44)"/>
<path d="M0 0 C2.64 0 5.28 0 8 0 C7.67 0.99 7.34 1.98 7 3 C5.02 3 3.04 3 1 3 C0.67 2.01 0.34 1.02 0 0 Z " fill="#F2F2F2" transform="translate(311,48)"/>
<path d="M0 0 C2.31 0 4.62 0 7 0 C7 0.66 7 1.32 7 2 C5.02 2.33 3.04 2.66 1 3 C0.67 2.01 0.34 1.02 0 0 Z " fill="#EFEFEF" transform="translate(231,48)"/>
<path d="M0 0 C0.33 0.99 0.66 1.98 1 3 C2.65 3 4.3 3 6 3 C5.01 4.485 5.01 4.485 4 6 C2.68 6 1.36 6 0 6 C0 4.02 0 2.04 0 0 Z " fill="#999999" transform="translate(248,42)"/>
<path d="M0 0 C2.97 0.495 2.97 0.495 6 1 C5.67 1.99 5.34 2.98 5 4 C3.35 4 1.7 4 0 4 C0 2.68 0 1.36 0 0 Z " fill="#939393" transform="translate(373,44)"/>
</svg>
